<?xml version="1.0" encoding="UTF-8"?>
<!DOCTYPE svg PUBLIC "-//W3C//DTD SVG 1.1//EN" "http://www.w3.org/Graphics/SVG/1.1/DTD/svg11.dtd">
<svg version="1.2" width="90mm" height="90mm" viewBox="0 0 9000 9000" preserveAspectRatio="xMidYMid" fill-rule="evenodd" stroke-width="28.222" stroke-linejoin="round" xmlns="http://www.w3.org/2000/svg" xmlns:ooo="http://xml.openoffice.org/svg/export" xmlns:xlink="http://www.w3.org/1999/xlink" xmlns:presentation="http://sun.com/xmlns/staroffice/presentation" xmlns:smil="http://www.w3.org/2001/SMIL20/" xmlns:anim="urn:oasis:names:tc:opendocument:xmlns:animation:1.0" xmlns:svg="urn:oasis:names:tc:opendocument:xmlns:svg-compatible:1.0" xml:space="preserve">
 <defs class="ClipPathGroup">
  <clipPath id="presentation_clip_path" clipPathUnits="userSpaceOnUse">
   <rect x="0" y="0" width="9000" height="9000"/>
  </clipPath>
  <clipPath id="presentation_clip_path_shrink" clipPathUnits="userSpaceOnUse">
   <rect x="9" y="9" width="8982" height="8982"/>
  </clipPath>
 </defs>
 <defs class="TextShapeIndex">
  <g ooo:slide="id1" ooo:id-list="id3 id4 id5 id6 id7 id8 id9 id10 id11 id12 id13 id14 id15 id16 id17 id18 id19 id20 id21 id22 id23 id24 id25 id26 id27 id28 id29 id30 id31 id32 id33 id34 id35 id36 id37 id38 id39 id40 id41"/>
 </defs>
 <defs class="EmbeddedBulletChars">
  <g id="bullet-char-template-57356" transform="scale(0.00048828125,-0.00048828125)">
   <path d="M 580,1141 L 1163,571 580,0 -4,571 580,1141 Z"/>
  </g>
  <g id="bullet-char-template-57354" transform="scale(0.00048828125,-0.00048828125)">
   <path d="M 8,1128 L 1137,1128 1137,0 8,0 8,1128 Z"/>
  </g>
  <g id="bullet-char-template-10146" transform="scale(0.00048828125,-0.00048828125)">
   <path d="M 174,0 L 602,739 174,1481 1456,739 174,0 Z M 1358,739 L 309,1346 659,739 1358,739 Z"/>
  </g>
  <g id="bullet-char-template-10132" transform="scale(0.00048828125,-0.00048828125)">
   <path d="M 2015,739 L 1276,0 717,0 1260,543 174,543 174,936 1260,936 717,1481 1274,1481 2015,739 Z"/>
  </g>
  <g id="bullet-char-template-10007" transform="scale(0.00048828125,-0.00048828125)">
   <path d="M 0,-2 C -7,14 -16,27 -25,37 L 356,567 C 262,823 215,952 215,954 215,979 228,992 255,992 264,992 276,990 289,987 310,991 331,999 354,1012 L 381,999 492,748 772,1049 836,1024 860,1049 C 881,1039 901,1025 922,1006 886,937 835,863 770,784 769,783 710,716 594,584 L 774,223 C 774,196 753,168 711,139 L 727,119 C 717,90 699,76 672,76 641,76 570,178 457,381 L 164,-76 C 142,-110 111,-127 72,-127 30,-127 9,-110 8,-76 1,-67 -2,-52 -2,-32 -2,-23 -1,-13 0,-2 Z"/>
  </g>
  <g id="bullet-char-template-10004" transform="scale(0.00048828125,-0.00048828125)">
   <path d="M 285,-33 C 182,-33 111,30 74,156 52,228 41,333 41,471 41,549 55,616 82,672 116,743 169,778 240,778 293,778 328,747 346,684 L 369,508 C 377,444 397,411 428,410 L 1163,1116 C 1174,1127 1196,1133 1229,1133 1271,1133 1292,1118 1292,1087 L 1292,965 C 1292,929 1282,901 1262,881 L 442,47 C 390,-6 338,-33 285,-33 Z"/>
  </g>
  <g id="bullet-char-template-9679" transform="scale(0.00048828125,-0.00048828125)">
   <path d="M 813,0 C 632,0 489,54 383,161 276,268 223,411 223,592 223,773 276,916 383,1023 489,1130 632,1184 813,1184 992,1184 1136,1130 1245,1023 1353,916 1407,772 1407,592 1407,412 1353,268 1245,161 1136,54 992,0 813,0 Z"/>
  </g>
  <g id="bullet-char-template-8226" transform="scale(0.00048828125,-0.00048828125)">
   <path d="M 346,457 C 273,457 209,483 155,535 101,586 74,649 74,723 74,796 101,859 155,911 209,963 273,989 346,989 419,989 480,963 531,910 582,859 608,796 608,723 608,648 583,586 532,535 482,483 420,457 346,457 Z"/>
  </g>
  <g id="bullet-char-template-8211" transform="scale(0.00048828125,-0.00048828125)">
   <path d="M -4,459 L 1135,459 1135,606 -4,606 -4,459 Z"/>
  </g>
  <g id="bullet-char-template-61548" transform="scale(0.00048828125,-0.00048828125)">
   <path d="M 173,740 C 173,903 231,1043 346,1159 462,1274 601,1332 765,1332 928,1332 1067,1274 1183,1159 1299,1043 1357,903 1357,740 1357,577 1299,437 1183,322 1067,206 928,148 765,148 601,148 462,206 346,322 231,437 173,577 173,740 Z"/>
  </g>
 </defs>
 <g>
  <g id="id2" class="Master_Slide">
   <g id="bg-id2" class="Background"/>
   <g id="bo-id2" class="BackgroundObjects"/>
  </g>
 </g>
 <g class="SlideGroup">
  <g>
   <g id="container-id1">
    <g id="id1" class="Slide" clip-path="url(#presentation_clip_path)">
     <g class="Page">
      <g class="com.sun.star.drawing.CustomShape">
       <g id="id3">
        <rect class="BoundingBox" stroke="none" fill="none" x="975" y="974" width="7051" height="1050"/>
        <path fill="rgb(114,159,207)" stroke="none" d="M 4500,1998 L 1000,1998 1000,999 8000,999 8000,1998 4500,1998 Z "/>
        <path fill="none" stroke="rgb(52,101,164)" stroke-width="50" stroke-linejoin="round" d="M 4500,1998 L 1000,1998 1000,999 8000,999 8000,1998 4500,1998 Z "/>
       </g>
      </g>
      <g class="com.sun.star.drawing.CustomShape">
       <g id="id4">
        <rect class="BoundingBox" stroke="none" fill="none" x="975" y="2975" width="7051" height="1050"/>
        <path fill="rgb(114,159,207)" stroke="none" d="M 4500,3999 L 1000,3999 1000,3000 8000,3000 8000,3999 4500,3999 Z "/>
        <path fill="none" stroke="rgb(52,101,164)" stroke-width="50" stroke-linejoin="round" d="M 4500,3999 L 1000,3999 1000,3000 8000,3000 8000,3999 4500,3999 Z "/>
       </g>
      </g>
      <g class="com.sun.star.drawing.CustomShape">
       <g id="id5">
        <rect class="BoundingBox" stroke="none" fill="none" x="975" y="4974" width="7051" height="1050"/>
        <path fill="rgb(114,159,207)" stroke="none" d="M 4500,5998 L 1000,5998 1000,4999 8000,4999 8000,5998 4500,5998 Z "/>
        <path fill="none" stroke="rgb(52,101,164)" stroke-width="50" stroke-linejoin="round" d="M 4500,5998 L 1000,5998 1000,4999 8000,4999 8000,5998 4500,5998 Z "/>
       </g>
      </g>
      <g class="com.sun.star.drawing.CustomShape">
       <g id="id6">
        <rect class="BoundingBox" stroke="none" fill="none" x="975" y="6974" width="7051" height="1050"/>
        <path fill="rgb(114,159,207)" stroke="none" d="M 4500,7998 L 1000,7998 1000,6999 8000,6999 8000,7998 4500,7998 Z "/>
        <path fill="none" stroke="rgb(52,101,164)" stroke-width="50" stroke-linejoin="round" d="M 4500,7998 L 1000,7998 1000,6999 8000,6999 8000,7998 4500,7998 Z "/>
       </g>
      </g>
      <g class="com.sun.star.drawing.ConnectorShape">
       <g id="id7">
        <rect class="BoundingBox" stroke="none" fill="none" x="4350" y="1974" width="301" height="1028"/>
        <path fill="none" stroke="rgb(52,101,164)" stroke-width="50" stroke-linejoin="round" d="M 4500,1999 L 4500,2721 "/>
        <path fill="rgb(52,101,164)" stroke="none" d="M 4650,2701 L 4500,3001 4350,2701 4650,2701 Z "/>
       </g>
      </g>
      <g class="com.sun.star.drawing.ConnectorShape">
       <g id="id8">
        <rect class="BoundingBox" stroke="none" fill="none" x="4350" y="3975" width="301" height="1026"/>
        <path fill="none" stroke="rgb(52,101,164)" stroke-width="50" stroke-linejoin="round" d="M 4500,4000 L 4500,4720 "/>
        <path fill="rgb(52,101,164)" stroke="none" d="M 4650,4700 L 4500,5000 4350,4700 4650,4700 Z "/>
       </g>
      </g>
      <g class="com.sun.star.drawing.ConnectorShape">
       <g id="id9">
        <rect class="BoundingBox" stroke="none" fill="none" x="4350" y="5974" width="301" height="1027"/>
        <path fill="none" stroke="rgb(52,101,164)" stroke-width="50" stroke-linejoin="round" d="M 4500,5999 L 4500,6720 "/>
        <path fill="rgb(52,101,164)" stroke="none" d="M 4650,6700 L 4500,7000 4350,6700 4650,6700 Z "/>
       </g>
      </g>
      <g class="com.sun.star.drawing.CustomShape">
       <g id="id10">
        <rect class="BoundingBox" stroke="none" fill="none" x="1225" y="1225" width="551" height="551"/>
        <path fill="rgb(119,188,101)" stroke="none" d="M 1500,1750 L 1250,1750 1250,1250 1750,1250 1750,1750 1500,1750 Z "/>
        <path fill="none" stroke="rgb(6,154,46)" stroke-width="50" stroke-linejoin="round" d="M 1500,1750 L 1250,1750 1250,1250 1750,1250 1750,1750 1500,1750 Z "/>
       </g>
      </g>
      <g class="com.sun.star.drawing.CustomShape">
       <g id="id11">
        <rect class="BoundingBox" stroke="none" fill="none" x="2225" y="1225" width="551" height="551"/>
        <path fill="rgb(119,188,101)" stroke="none" d="M 2500,1750 L 2250,1750 2250,1250 2750,1250 2750,1750 2500,1750 Z "/>
        <path fill="none" stroke="rgb(6,154,46)" stroke-width="50" stroke-linejoin="round" d="M 2500,1750 L 2250,1750 2250,1250 2750,1250 2750,1750 2500,1750 Z "/>
       </g>
      </g>
      <g class="com.sun.star.drawing.CustomShape">
       <g id="id12">
        <rect class="BoundingBox" stroke="none" fill="none" x="3225" y="1225" width="551" height="551"/>
        <path fill="rgb(119,188,101)" stroke="none" d="M 3500,1750 L 3250,1750 3250,1250 3750,1250 3750,1750 3500,1750 Z "/>
        <path fill="none" stroke="rgb(6,154,46)" stroke-width="50" stroke-linejoin="round" d="M 3500,1750 L 3250,1750 3250,1250 3750,1250 3750,1750 3500,1750 Z "/>
       </g>
      </g>
      <g class="com.sun.star.drawing.CustomShape">
       <g id="id13">
        <rect class="BoundingBox" stroke="none" fill="none" x="4225" y="1225" width="551" height="551"/>
        <path fill="rgb(119,188,101)" stroke="none" d="M 4500,1750 L 4250,1750 4250,1250 4750,1250 4750,1750 4500,1750 Z "/>
        <path fill="none" stroke="rgb(6,154,46)" stroke-width="50" stroke-linejoin="round" d="M 4500,1750 L 4250,1750 4250,1250 4750,1250 4750,1750 4500,1750 Z "/>
       </g>
      </g>
      <g class="com.sun.star.drawing.CustomShape">
       <g id="id14">
        <rect class="BoundingBox" stroke="none" fill="none" x="5225" y="1225" width="551" height="551"/>
        <path fill="rgb(119,188,101)" stroke="none" d="M 5500,1750 L 5250,1750 5250,1250 5750,1250 5750,1750 5500,1750 Z "/>
        <path fill="none" stroke="rgb(6,154,46)" stroke-width="50" stroke-linejoin="round" d="M 5500,1750 L 5250,1750 5250,1250 5750,1250 5750,1750 5500,1750 Z "/>
       </g>
      </g>
      <g class="com.sun.star.drawing.CustomShape">
       <g id="id15">
        <rect class="BoundingBox" stroke="none" fill="none" x="6225" y="1225" width="551" height="551"/>
        <path fill="rgb(119,188,101)" stroke="none" d="M 6500,1750 L 6250,1750 6250,1250 6750,1250 6750,1750 6500,1750 Z "/>
        <path fill="none" stroke="rgb(6,154,46)" stroke-width="50" stroke-linejoin="round" d="M 6500,1750 L 6250,1750 6250,1250 6750,1250 6750,1750 6500,1750 Z "/>
       </g>
      </g>
      <g class="com.sun.star.drawing.ConnectorShape">
       <g id="id16">
        <rect class="BoundingBox" stroke="none" fill="none" x="1725" y="1350" width="526" height="301"/>
        <path fill="none" stroke="rgb(6,154,46)" stroke-width="50" stroke-linejoin="round" d="M 1750,1500 L 1970,1500 "/>
        <path fill="rgb(6,154,46)" stroke="none" d="M 1950,1350 L 2250,1500 1950,1650 1950,1350 Z "/>
       </g>
      </g>
      <g class="com.sun.star.drawing.ConnectorShape">
       <g id="id17">
        <rect class="BoundingBox" stroke="none" fill="none" x="2725" y="1350" width="526" height="301"/>
        <path fill="none" stroke="rgb(6,154,46)" stroke-width="50" stroke-linejoin="round" d="M 2750,1500 L 2970,1500 "/>
        <path fill="rgb(6,154,46)" stroke="none" d="M 2950,1350 L 3250,1500 2950,1650 2950,1350 Z "/>
       </g>
      </g>
      <g class="com.sun.star.drawing.ConnectorShape">
       <g id="id18">
        <rect class="BoundingBox" stroke="none" fill="none" x="3725" y="1350" width="526" height="301"/>
        <path fill="none" stroke="rgb(6,154,46)" stroke-width="50" stroke-linejoin="round" d="M 3750,1500 L 3970,1500 "/>
        <path fill="rgb(6,154,46)" stroke="none" d="M 3950,1350 L 4250,1500 3950,1650 3950,1350 Z "/>
       </g>
      </g>
      <g class="com.sun.star.drawing.ConnectorShape">
       <g id="id19">
        <rect class="BoundingBox" stroke="none" fill="none" x="4725" y="1350" width="526" height="301"/>
        <path fill="none" stroke="rgb(6,154,46)" stroke-width="50" stroke-linejoin="round" d="M 4750,1500 L 4970,1500 "/>
        <path fill="rgb(6,154,46)" stroke="none" d="M 4950,1350 L 5250,1500 4950,1650 4950,1350 Z "/>
       </g>
      </g>
      <g class="com.sun.star.drawing.ConnectorShape">
       <g id="id20">
        <rect class="BoundingBox" stroke="none" fill="none" x="5725" y="1350" width="526" height="301"/>
        <path fill="none" stroke="rgb(6,154,46)" stroke-width="50" stroke-linejoin="round" d="M 5750,1500 L 5970,1500 "/>
        <path fill="rgb(6,154,46)" stroke="none" d="M 5950,1350 L 6250,1500 5950,1650 5950,1350 Z "/>
       </g>
      </g>
      <g class="com.sun.star.drawing.CustomShape">
       <g id="id21">
        <rect class="BoundingBox" stroke="none" fill="none" x="1225" y="3225" width="551" height="551"/>
        <path fill="rgb(119,188,101)" stroke="none" d="M 1500,3750 L 1250,3750 1250,3250 1750,3250 1750,3750 1500,3750 Z "/>
        <path fill="none" stroke="rgb(6,154,46)" stroke-width="50" stroke-linejoin="round" d="M 1500,3750 L 1250,3750 1250,3250 1750,3250 1750,3750 1500,3750 Z "/>
       </g>
      </g>
      <g class="com.sun.star.drawing.CustomShape">
       <g id="id22">
        <rect class="BoundingBox" stroke="none" fill="none" x="2225" y="3225" width="551" height="551"/>
        <path fill="rgb(119,188,101)" stroke="none" d="M 2500,3750 L 2250,3750 2250,3250 2750,3250 2750,3750 2500,3750 Z "/>
        <path fill="none" stroke="rgb(6,154,46)" stroke-width="50" stroke-linejoin="round" d="M 2500,3750 L 2250,3750 2250,3250 2750,3250 2750,3750 2500,3750 Z "/>
       </g>
      </g>
      <g class="com.sun.star.drawing.CustomShape">
       <g id="id23">
        <rect class="BoundingBox" stroke="none" fill="none" x="3225" y="3225" width="551" height="551"/>
        <path fill="rgb(119,188,101)" stroke="none" d="M 3500,3750 L 3250,3750 3250,3250 3750,3250 3750,3750 3500,3750 Z "/>
        <path fill="none" stroke="rgb(6,154,46)" stroke-width="50" stroke-linejoin="round" d="M 3500,3750 L 3250,3750 3250,3250 3750,3250 3750,3750 3500,3750 Z "/>
       </g>
      </g>
      <g class="com.sun.star.drawing.CustomShape">
       <g id="id24">
        <rect class="BoundingBox" stroke="none" fill="none" x="4225" y="3225" width="551" height="551"/>
        <path fill="rgb(119,188,101)" stroke="none" d="M 4500,3750 L 4250,3750 4250,3250 4750,3250 4750,3750 4500,3750 Z "/>
        <path fill="none" stroke="rgb(6,154,46)" stroke-width="50" stroke-linejoin="round" d="M 4500,3750 L 4250,3750 4250,3250 4750,3250 4750,3750 4500,3750 Z "/>
       </g>
      </g>
      <g class="com.sun.star.drawing.ConnectorShape">
       <g id="id25">
        <rect class="BoundingBox" stroke="none" fill="none" x="1725" y="3350" width="526" height="301"/>
        <path fill="none" stroke="rgb(6,154,46)" stroke-width="50" stroke-linejoin="round" d="M 1750,3500 L 1970,3500 "/>
        <path fill="rgb(6,154,46)" stroke="none" d="M 1950,3350 L 2250,3500 1950,3650 1950,3350 Z "/>
       </g>
      </g>
      <g class="com.sun.star.drawing.ConnectorShape">
       <g id="id26">
        <rect class="BoundingBox" stroke="none" fill="none" x="2725" y="3350" width="526" height="301"/>
        <path fill="none" stroke="rgb(6,154,46)" stroke-width="50" stroke-linejoin="round" d="M 2750,3500 L 2970,3500 "/>
        <path fill="rgb(6,154,46)" stroke="none" d="M 2950,3350 L 3250,3500 2950,3650 2950,3350 Z "/>
       </g>
      </g>
      <g class="com.sun.star.drawing.ConnectorShape">
       <g id="id27">
        <rect class="BoundingBox" stroke="none" fill="none" x="3725" y="3350" width="526" height="301"/>
        <path fill="none" stroke="rgb(6,154,46)" stroke-width="50" stroke-linejoin="round" d="M 3750,3500 L 3970,3500 "/>
        <path fill="rgb(6,154,46)" stroke="none" d="M 3950,3350 L 4250,3500 3950,3650 3950,3350 Z "/>
       </g>
      </g>
      <g class="com.sun.star.drawing.CustomShape">
       <g id="id28">
        <rect class="BoundingBox" stroke="none" fill="none" x="1225" y="5225" width="551" height="551"/>
        <path fill="rgb(119,188,101)" stroke="none" d="M 1500,5750 L 1250,5750 1250,5250 1750,5250 1750,5750 1500,5750 Z "/>
        <path fill="none" stroke="rgb(6,154,46)" stroke-width="50" stroke-linejoin="round" d="M 1500,5750 L 1250,5750 1250,5250 1750,5250 1750,5750 1500,5750 Z "/>
       </g>
      </g>
      <g class="com.sun.star.drawing.CustomShape">
       <g id="id29">
        <rect class="BoundingBox" stroke="none" fill="none" x="2225" y="5225" width="551" height="551"/>
        <path fill="rgb(119,188,101)" stroke="none" d="M 2500,5750 L 2250,5750 2250,5250 2750,5250 2750,5750 2500,5750 Z "/>
        <path fill="none" stroke="rgb(6,154,46)" stroke-width="50" stroke-linejoin="round" d="M 2500,5750 L 2250,5750 2250,5250 2750,5250 2750,5750 2500,5750 Z "/>
       </g>
      </g>
      <g class="com.sun.star.drawing.CustomShape">
       <g id="id30">
        <rect class="BoundingBox" stroke="none" fill="none" x="3225" y="5225" width="551" height="551"/>
        <path fill="rgb(119,188,101)" stroke="none" d="M 3500,5750 L 3250,5750 3250,5250 3750,5250 3750,5750 3500,5750 Z "/>
        <path fill="none" stroke="rgb(6,154,46)" stroke-width="50" stroke-linejoin="round" d="M 3500,5750 L 3250,5750 3250,5250 3750,5250 3750,5750 3500,5750 Z "/>
       </g>
      </g>
      <g class="com.sun.star.drawing.CustomShape">
       <g id="id31">
        <rect class="BoundingBox" stroke="none" fill="none" x="4225" y="5225" width="551" height="551"/>
        <path fill="rgb(119,188,101)" stroke="none" d="M 4500,5750 L 4250,5750 4250,5250 4750,5250 4750,5750 4500,5750 Z "/>
        <path fill="none" stroke="rgb(6,154,46)" stroke-width="50" stroke-linejoin="round" d="M 4500,5750 L 4250,5750 4250,5250 4750,5250 4750,5750 4500,5750 Z "/>
       </g>
      </g>
      <g class="com.sun.star.drawing.CustomShape">
       <g id="id32">
        <rect class="BoundingBox" stroke="none" fill="none" x="5225" y="5225" width="551" height="551"/>
        <path fill="rgb(119,188,101)" stroke="none" d="M 5500,5750 L 5250,5750 5250,5250 5750,5250 5750,5750 5500,5750 Z "/>
        <path fill="none" stroke="rgb(6,154,46)" stroke-width="50" stroke-linejoin="round" d="M 5500,5750 L 5250,5750 5250,5250 5750,5250 5750,5750 5500,5750 Z "/>
       </g>
      </g>
      <g class="com.sun.star.drawing.ConnectorShape">
       <g id="id33">
        <rect class="BoundingBox" stroke="none" fill="none" x="1725" y="5350" width="526" height="301"/>
        <path fill="none" stroke="rgb(6,154,46)" stroke-width="50" stroke-linejoin="round" d="M 1750,5500 L 1970,5500 "/>
        <path fill="rgb(6,154,46)" stroke="none" d="M 1950,5350 L 2250,5500 1950,5650 1950,5350 Z "/>
       </g>
      </g>
      <g class="com.sun.star.drawing.ConnectorShape">
       <g id="id34">
        <rect class="BoundingBox" stroke="none" fill="none" x="2725" y="5350" width="526" height="301"/>
        <path fill="none" stroke="rgb(6,154,46)" stroke-width="50" stroke-linejoin="round" d="M 2750,5500 L 2970,5500 "/>
        <path fill="rgb(6,154,46)" stroke="none" d="M 2950,5350 L 3250,5500 2950,5650 2950,5350 Z "/>
       </g>
      </g>
      <g class="com.sun.star.drawing.ConnectorShape">
       <g id="id35">
        <rect class="BoundingBox" stroke="none" fill="none" x="3725" y="5350" width="526" height="301"/>
        <path fill="none" stroke="rgb(6,154,46)" stroke-width="50" stroke-linejoin="round" d="M 3750,5500 L 3970,5500 "/>
        <path fill="rgb(6,154,46)" stroke="none" d="M 3950,5350 L 4250,5500 3950,5650 3950,5350 Z "/>
       </g>
      </g>
      <g class="com.sun.star.drawing.ConnectorShape">
       <g id="id36">
        <rect class="BoundingBox" stroke="none" fill="none" x="4725" y="5350" width="526" height="301"/>
        <path fill="none" stroke="rgb(6,154,46)" stroke-width="50" stroke-linejoin="round" d="M 4750,5500 L 4970,5500 "/>
        <path fill="rgb(6,154,46)" stroke="none" d="M 4950,5350 L 5250,5500 4950,5650 4950,5350 Z "/>
       </g>
      </g>
      <g class="com.sun.star.drawing.CustomShape">
       <g id="id37">
        <rect class="BoundingBox" stroke="none" fill="none" x="1225" y="7225" width="551" height="551"/>
        <path fill="rgb(119,188,101)" stroke="none" d="M 1500,7750 L 1250,7750 1250,7250 1750,7250 1750,7750 1500,7750 Z "/>
        <path fill="none" stroke="rgb(6,154,46)" stroke-width="50" stroke-linejoin="round" d="M 1500,7750 L 1250,7750 1250,7250 1750,7250 1750,7750 1500,7750 Z "/>
       </g>
      </g>
      <g class="com.sun.star.drawing.CustomShape">
       <g id="id38">
        <rect class="BoundingBox" stroke="none" fill="none" x="2225" y="7225" width="551" height="551"/>
        <path fill="rgb(119,188,101)" stroke="none" d="M 2500,7750 L 2250,7750 2250,7250 2750,7250 2750,7750 2500,7750 Z "/>
        <path fill="none" stroke="rgb(6,154,46)" stroke-width="50" stroke-linejoin="round" d="M 2500,7750 L 2250,7750 2250,7250 2750,7250 2750,7750 2500,7750 Z "/>
       </g>
      </g>
      <g class="com.sun.star.drawing.CustomShape">
       <g id="id39">
        <rect class="BoundingBox" stroke="none" fill="none" x="3225" y="7225" width="551" height="551"/>
        <path fill="rgb(119,188,101)" stroke="none" d="M 3500,7750 L 3250,7750 3250,7250 3750,7250 3750,7750 3500,7750 Z "/>
        <path fill="none" stroke="rgb(6,154,46)" stroke-width="50" stroke-linejoin="round" d="M 3500,7750 L 3250,7750 3250,7250 3750,7250 3750,7750 3500,7750 Z "/>
       </g>
      </g>
      <g class="com.sun.star.drawing.ConnectorShape">
       <g id="id40">
        <rect class="BoundingBox" stroke="none" fill="none" x="1725" y="7350" width="526" height="301"/>
        <path fill="none" stroke="rgb(6,154,46)" stroke-width="50" stroke-linejoin="round" d="M 1750,7500 L 1970,7500 "/>
        <path fill="rgb(6,154,46)" stroke="none" d="M 1950,7350 L 2250,7500 1950,7650 1950,7350 Z "/>
       </g>
      </g>
      <g class="com.sun.star.drawing.ConnectorShape">
       <g id="id41">
        <rect class="BoundingBox" stroke="none" fill="none" x="2725" y="7350" width="526" height="301"/>
        <path fill="none" stroke="rgb(6,154,46)" stroke-width="50" stroke-linejoin="round" d="M 2750,7500 L 2970,7500 "/>
        <path fill="rgb(6,154,46)" stroke="none" d="M 2950,7350 L 3250,7500 2950,7650 2950,7350 Z "/>
       </g>
      </g>
     </g>
    </g>
   </g>
  </g>
 </g>
</svg>