<?xml version="1.0" encoding="UTF-8"?>
<!DOCTYPE svg PUBLIC "-//W3C//DTD SVG 1.1//EN" "http://www.w3.org/Graphics/SVG/1.1/DTD/svg11.dtd">
<svg version="1.2" width="100mm" height="100mm" viewBox="0 0 10000 10000" preserveAspectRatio="xMidYMid" fill-rule="evenodd" stroke-width="28.222" stroke-linejoin="round" xmlns="http://www.w3.org/2000/svg" xmlns:ooo="http://xml.openoffice.org/svg/export" xmlns:xlink="http://www.w3.org/1999/xlink" xmlns:presentation="http://sun.com/xmlns/staroffice/presentation" xmlns:smil="http://www.w3.org/2001/SMIL20/" xmlns:anim="urn:oasis:names:tc:opendocument:xmlns:animation:1.0" xmlns:svg="urn:oasis:names:tc:opendocument:xmlns:svg-compatible:1.0" xml:space="preserve">
 <defs class="ClipPathGroup">
  <clipPath id="presentation_clip_path" clipPathUnits="userSpaceOnUse">
   <rect x="0" y="0" width="10000" height="10000"/>
  </clipPath>
  <clipPath id="presentation_clip_path_shrink" clipPathUnits="userSpaceOnUse">
   <rect x="10" y="10" width="9980" height="9980"/>
  </clipPath>
 </defs>
 <defs class="TextShapeIndex">
  <g ooo:slide="id1" ooo:id-list="id3 id4 id5 id6 id7 id8 id9 id10 id11 id12 id13 id14 id15 id16 id17 id18 id19 id20 id21 id22 id23 id24 id25 id26 id27 id28 id29 id30 id31 id32 id33 id34 id35 id36 id37 id38 id39 id40 id41 id42 id43 id44 id45 id46 id47 id48 id49"/>
 </defs>
 <defs class="EmbeddedBulletChars">
  <g id="bullet-char-template-57356" transform="scale(0.00048828125,-0.00048828125)">
   <path d="M 580,1141 L 1163,571 580,0 -4,571 580,1141 Z"/>
  </g>
  <g id="bullet-char-template-57354" transform="scale(0.00048828125,-0.00048828125)">
   <path d="M 8,1128 L 1137,1128 1137,0 8,0 8,1128 Z"/>
  </g>
  <g id="bullet-char-template-10146" transform="scale(0.00048828125,-0.00048828125)">
   <path d="M 174,0 L 602,739 174,1481 1456,739 174,0 Z M 1358,739 L 309,1346 659,739 1358,739 Z"/>
  </g>
  <g id="bullet-char-template-10132" transform="scale(0.00048828125,-0.00048828125)">
   <path d="M 2015,739 L 1276,0 717,0 1260,543 174,543 174,936 1260,936 717,1481 1274,1481 2015,739 Z"/>
  </g>
  <g id="bullet-char-template-10007" transform="scale(0.00048828125,-0.00048828125)">
   <path d="M 0,-2 C -7,14 -16,27 -25,37 L 356,567 C 262,823 215,952 215,954 215,979 228,992 255,992 264,992 276,990 289,987 310,991 331,999 354,1012 L 381,999 492,748 772,1049 836,1024 860,1049 C 881,1039 901,1025 922,1006 886,937 835,863 770,784 769,783 710,716 594,584 L 774,223 C 774,196 753,168 711,139 L 727,119 C 717,90 699,76 672,76 641,76 570,178 457,381 L 164,-76 C 142,-110 111,-127 72,-127 30,-127 9,-110 8,-76 1,-67 -2,-52 -2,-32 -2,-23 -1,-13 0,-2 Z"/>
  </g>
  <g id="bullet-char-template-10004" transform="scale(0.00048828125,-0.00048828125)">
   <path d="M 285,-33 C 182,-33 111,30 74,156 52,228 41,333 41,471 41,549 55,616 82,672 116,743 169,778 240,778 293,778 328,747 346,684 L 369,508 C 377,444 397,411 428,410 L 1163,1116 C 1174,1127 1196,1133 1229,1133 1271,1133 1292,1118 1292,1087 L 1292,965 C 1292,929 1282,901 1262,881 L 442,47 C 390,-6 338,-33 285,-33 Z"/>
  </g>
  <g id="bullet-char-template-9679" transform="scale(0.00048828125,-0.00048828125)">
   <path d="M 813,0 C 632,0 489,54 383,161 276,268 223,411 223,592 223,773 276,916 383,1023 489,1130 632,1184 813,1184 992,1184 1136,1130 1245,1023 1353,916 1407,772 1407,592 1407,412 1353,268 1245,161 1136,54 992,0 813,0 Z"/>
  </g>
  <g id="bullet-char-template-8226" transform="scale(0.00048828125,-0.00048828125)">
   <path d="M 346,457 C 273,457 209,483 155,535 101,586 74,649 74,723 74,796 101,859 155,911 209,963 273,989 346,989 419,989 480,963 531,910 582,859 608,796 608,723 608,648 583,586 532,535 482,483 420,457 346,457 Z"/>
  </g>
  <g id="bullet-char-template-8211" transform="scale(0.00048828125,-0.00048828125)">
   <path d="M -4,459 L 1135,459 1135,606 -4,606 -4,459 Z"/>
  </g>
  <g id="bullet-char-template-61548" transform="scale(0.00048828125,-0.00048828125)">
   <path d="M 173,740 C 173,903 231,1043 346,1159 462,1274 601,1332 765,1332 928,1332 1067,1274 1183,1159 1299,1043 1357,903 1357,740 1357,577 1299,437 1183,322 1067,206 928,148 765,148 601,148 462,206 346,322 231,437 173,577 173,740 Z"/>
  </g>
 </defs>
 <g>
  <g id="id2" class="Master_Slide">
   <g id="bg-id2" class="Background"/>
   <g id="bo-id2" class="BackgroundObjects"/>
  </g>
 </g>
 <g class="SlideGroup">
  <g>
   <g id="container-id1">
    <g id="id1" class="Slide" clip-path="url(#presentation_clip_path)">
     <g class="Page">
      <g class="com.sun.star.drawing.CustomShape">
       <g id="id3">
        <rect class="BoundingBox" stroke="none" fill="none" x="974" y="3308" width="1384" height="1385"/>
        <path fill="rgb(114,159,207)" stroke="none" d="M 1666,4667 L 999,4667 999,3333 2332,3333 2332,4667 1666,4667 Z "/>
        <path fill="none" stroke="rgb(52,101,164)" stroke-width="50" stroke-linejoin="round" d="M 1666,4667 L 999,4667 999,3333 2332,3333 2332,4667 1666,4667 Z "/>
       </g>
      </g>
      <g class="com.sun.star.drawing.CustomShape">
       <g id="id4">
        <rect class="BoundingBox" stroke="none" fill="none" x="2308" y="3308" width="1385" height="1385"/>
        <path fill="rgb(114,159,207)" stroke="none" d="M 3000,4667 L 2333,4667 2333,3333 3667,3333 3667,4667 3000,4667 Z "/>
        <path fill="none" stroke="rgb(52,101,164)" stroke-width="50" stroke-linejoin="round" d="M 3000,4667 L 2333,4667 2333,3333 3667,3333 3667,4667 3000,4667 Z "/>
       </g>
      </g>
      <g class="com.sun.star.drawing.CustomShape">
       <g id="id5">
        <rect class="BoundingBox" stroke="none" fill="none" x="3641" y="3308" width="1384" height="1385"/>
        <path fill="rgb(114,159,207)" stroke="none" d="M 4333,4667 L 3666,4667 3666,3333 4999,3333 4999,4667 4333,4667 Z "/>
        <path fill="none" stroke="rgb(52,101,164)" stroke-width="50" stroke-linejoin="round" d="M 4333,4667 L 3666,4667 3666,3333 4999,3333 4999,4667 4333,4667 Z "/>
       </g>
      </g>
      <g class="com.sun.star.drawing.CustomShape">
       <g id="id6">
        <rect class="BoundingBox" stroke="none" fill="none" x="974" y="1974" width="1384" height="1384"/>
        <path fill="rgb(114,159,207)" stroke="none" d="M 1666,3332 L 999,3332 999,1999 2332,1999 2332,3332 1666,3332 Z "/>
        <path fill="none" stroke="rgb(52,101,164)" stroke-width="50" stroke-linejoin="round" d="M 1666,3332 L 999,3332 999,1999 2332,1999 2332,3332 1666,3332 Z "/>
       </g>
      </g>
      <g class="com.sun.star.drawing.CustomShape">
       <g id="id7">
        <rect class="BoundingBox" stroke="none" fill="none" x="2308" y="1974" width="1385" height="1384"/>
        <path fill="rgb(114,159,207)" stroke="none" d="M 3000,3332 L 2333,3332 2333,1999 3667,1999 3667,3332 3000,3332 Z "/>
        <path fill="none" stroke="rgb(52,101,164)" stroke-width="50" stroke-linejoin="round" d="M 3000,3332 L 2333,3332 2333,1999 3667,1999 3667,3332 3000,3332 Z "/>
       </g>
      </g>
      <g class="com.sun.star.drawing.CustomShape">
       <g id="id8">
        <rect class="BoundingBox" stroke="none" fill="none" x="3641" y="1974" width="1384" height="1384"/>
        <path fill="rgb(114,159,207)" stroke="none" d="M 4333,3332 L 3666,3332 3666,1999 4999,1999 4999,3332 4333,3332 Z "/>
        <path fill="none" stroke="rgb(52,101,164)" stroke-width="50" stroke-linejoin="round" d="M 4333,3332 L 3666,3332 3666,1999 4999,1999 4999,3332 4333,3332 Z "/>
       </g>
      </g>
      <g class="com.sun.star.drawing.PolyPolygonShape">
       <g id="id9">
        <rect class="BoundingBox" stroke="none" fill="none" x="975" y="1641" width="1718" height="385"/>
        <path fill="rgb(114,159,207)" stroke="none" d="M 1000,2000 L 1333,1667 2667,1667 2333,2000 1000,2000 Z "/>
        <path fill="none" stroke="rgb(52,101,164)" stroke-width="50" stroke-linejoin="round" d="M 1000,2000 L 1333,1667 2667,1667 2333,2000 1000,2000 Z "/>
       </g>
      </g>
      <g class="com.sun.star.drawing.PolyPolygonShape">
       <g id="id10">
        <rect class="BoundingBox" stroke="none" fill="none" x="2308" y="1641" width="1718" height="385"/>
        <path fill="rgb(114,159,207)" stroke="none" d="M 2333,2000 L 2667,1667 4000,1667 3667,2000 2333,2000 Z "/>
        <path fill="none" stroke="rgb(52,101,164)" stroke-width="50" stroke-linejoin="round" d="M 2333,2000 L 2667,1667 4000,1667 3667,2000 2333,2000 Z "/>
       </g>
      </g>
      <g class="com.sun.star.drawing.PolyPolygonShape">
       <g id="id11">
        <rect class="BoundingBox" stroke="none" fill="none" x="3641" y="1641" width="1719" height="385"/>
        <path fill="rgb(114,159,207)" stroke="none" d="M 3667,2000 L 4000,1667 5333,1667 5000,2000 3667,2000 Z "/>
        <path fill="none" stroke="rgb(52,101,164)" stroke-width="50" stroke-linejoin="round" d="M 3667,2000 L 4000,1667 5333,1667 5000,2000 3667,2000 Z "/>
       </g>
      </g>
      <g class="com.sun.star.drawing.PolyPolygonShape">
       <g id="id12">
        <rect class="BoundingBox" stroke="none" fill="none" x="1308" y="1308" width="1718" height="385"/>
        <path fill="rgb(114,159,207)" stroke="none" d="M 1333,1667 L 1667,1333 3000,1333 2667,1667 1333,1667 Z "/>
        <path fill="none" stroke="rgb(52,101,164)" stroke-width="50" stroke-linejoin="round" d="M 1333,1667 L 1667,1333 3000,1333 2667,1667 1333,1667 Z "/>
       </g>
      </g>
      <g class="com.sun.star.drawing.PolyPolygonShape">
       <g id="id13">
        <rect class="BoundingBox" stroke="none" fill="none" x="2641" y="1308" width="1719" height="385"/>
        <path fill="rgb(114,159,207)" stroke="none" d="M 2667,1667 L 3000,1333 4333,1333 4000,1667 2667,1667 Z "/>
        <path fill="none" stroke="rgb(52,101,164)" stroke-width="50" stroke-linejoin="round" d="M 2667,1667 L 3000,1333 4333,1333 4000,1667 2667,1667 Z "/>
       </g>
      </g>
      <g class="com.sun.star.drawing.PolyPolygonShape">
       <g id="id14">
        <rect class="BoundingBox" stroke="none" fill="none" x="3975" y="1308" width="1718" height="385"/>
        <path fill="rgb(114,159,207)" stroke="none" d="M 4000,1667 L 4333,1333 5667,1333 5333,1667 4000,1667 Z "/>
        <path fill="none" stroke="rgb(52,101,164)" stroke-width="50" stroke-linejoin="round" d="M 4000,1667 L 4333,1333 5667,1333 5333,1667 4000,1667 Z "/>
       </g>
      </g>
      <g class="com.sun.star.drawing.PolyPolygonShape">
       <g id="id15">
        <rect class="BoundingBox" stroke="none" fill="none" x="1641" y="975" width="1719" height="385"/>
        <path fill="rgb(114,159,207)" stroke="none" d="M 1667,1333 L 2000,1000 3333,1000 3000,1333 1667,1333 Z "/>
        <path fill="none" stroke="rgb(52,101,164)" stroke-width="50" stroke-linejoin="round" d="M 1667,1333 L 2000,1000 3333,1000 3000,1333 1667,1333 Z "/>
       </g>
      </g>
      <g class="com.sun.star.drawing.PolyPolygonShape">
       <g id="id16">
        <rect class="BoundingBox" stroke="none" fill="none" x="2975" y="975" width="1718" height="385"/>
        <path fill="rgb(114,159,207)" stroke="none" d="M 3000,1333 L 3333,1000 4667,1000 4333,1333 3000,1333 Z "/>
        <path fill="none" stroke="rgb(52,101,164)" stroke-width="50" stroke-linejoin="round" d="M 3000,1333 L 3333,1000 4667,1000 4333,1333 3000,1333 Z "/>
       </g>
      </g>
      <g class="com.sun.star.drawing.PolyPolygonShape">
       <g id="id17">
        <rect class="BoundingBox" stroke="none" fill="none" x="4308" y="975" width="1718" height="385"/>
        <path fill="rgb(114,159,207)" stroke="none" d="M 4333,1333 L 4667,1000 6000,1000 5667,1333 4333,1333 Z "/>
        <path fill="none" stroke="rgb(52,101,164)" stroke-width="50" stroke-linejoin="round" d="M 4333,1333 L 4667,1000 6000,1000 5667,1333 4333,1333 Z "/>
       </g>
      </g>
      <g class="com.sun.star.drawing.PolyPolygonShape">
       <g id="id18">
        <rect class="BoundingBox" stroke="none" fill="none" x="4975" y="1641" width="385" height="1719"/>
        <path fill="rgb(114,159,207)" stroke="none" d="M 5000,3333 L 5000,2000 5333,1667 5333,3000 5000,3333 Z "/>
        <path fill="none" stroke="rgb(52,101,164)" stroke-width="50" stroke-linejoin="round" d="M 5000,3333 L 5000,2000 5333,1667 5333,3000 5000,3333 Z "/>
       </g>
      </g>
      <g class="com.sun.star.drawing.PolyPolygonShape">
       <g id="id19">
        <rect class="BoundingBox" stroke="none" fill="none" x="4974" y="2974" width="386" height="1719"/>
        <path fill="rgb(114,159,207)" stroke="none" d="M 5000,4667 L 5000,3333 5333,3000 5333,4333 5000,4667 Z "/>
        <path fill="none" stroke="rgb(52,101,164)" stroke-width="50" stroke-linejoin="round" d="M 5000,4667 L 5000,3333 5333,3000 5333,4333 5000,4667 Z "/>
       </g>
      </g>
      <g class="com.sun.star.drawing.PolyPolygonShape">
       <g id="id20">
        <rect class="BoundingBox" stroke="none" fill="none" x="5308" y="1308" width="385" height="1718"/>
        <path fill="rgb(114,159,207)" stroke="none" d="M 5333,3000 L 5333,1667 5667,1333 5667,2667 5333,3000 Z "/>
        <path fill="none" stroke="rgb(52,101,164)" stroke-width="50" stroke-linejoin="round" d="M 5333,3000 L 5333,1667 5667,1333 5667,2667 5333,3000 Z "/>
       </g>
      </g>
      <g class="com.sun.star.drawing.PolyPolygonShape">
       <g id="id21">
        <rect class="BoundingBox" stroke="none" fill="none" x="5308" y="2641" width="385" height="1719"/>
        <path fill="rgb(114,159,207)" stroke="none" d="M 5333,4333 L 5333,3000 5667,2667 5667,4000 5333,4333 Z "/>
        <path fill="none" stroke="rgb(52,101,164)" stroke-width="50" stroke-linejoin="round" d="M 5333,4333 L 5333,3000 5667,2667 5667,4000 5333,4333 Z "/>
       </g>
      </g>
      <g class="com.sun.star.drawing.PolyPolygonShape">
       <g id="id22">
        <rect class="BoundingBox" stroke="none" fill="none" x="5641" y="975" width="385" height="1718"/>
        <path fill="rgb(114,159,207)" stroke="none" d="M 5667,2667 L 5667,1333 6000,1000 6000,2333 5667,2667 Z "/>
        <path fill="none" stroke="rgb(52,101,164)" stroke-width="50" stroke-linejoin="round" d="M 5667,2667 L 5667,1333 6000,1000 6000,2333 5667,2667 Z "/>
       </g>
      </g>
      <g class="com.sun.star.drawing.PolyPolygonShape">
       <g id="id23">
        <rect class="BoundingBox" stroke="none" fill="none" x="5641" y="2308" width="385" height="1718"/>
        <path fill="rgb(114,159,207)" stroke="none" d="M 5667,4000 L 5667,2667 6000,2333 6000,3667 5667,4000 Z "/>
        <path fill="none" stroke="rgb(52,101,164)" stroke-width="50" stroke-linejoin="round" d="M 5667,4000 L 5667,2667 6000,2333 6000,3667 5667,4000 Z "/>
       </g>
      </g>
      <g class="com.sun.star.drawing.CustomShape">
       <g id="id24">
        <rect class="BoundingBox" stroke="none" fill="none" x="5308" y="7641" width="1385" height="1384"/>
        <path fill="rgb(114,159,207)" stroke="none" d="M 6000,8999 L 5333,8999 5333,7666 6667,7666 6667,8999 6000,8999 Z "/>
        <path fill="none" stroke="rgb(52,101,164)" stroke-width="50" stroke-linejoin="round" d="M 6000,8999 L 5333,8999 5333,7666 6667,7666 6667,8999 6000,8999 Z "/>
       </g>
      </g>
      <g class="com.sun.star.drawing.CustomShape">
       <g id="id25">
        <rect class="BoundingBox" stroke="none" fill="none" x="6641" y="7641" width="1384" height="1384"/>
        <path fill="rgb(114,159,207)" stroke="none" d="M 7333,8999 L 6666,8999 6666,7666 7999,7666 7999,8999 7333,8999 Z "/>
        <path fill="none" stroke="rgb(52,101,164)" stroke-width="50" stroke-linejoin="round" d="M 7333,8999 L 6666,8999 6666,7666 7999,7666 7999,8999 7333,8999 Z "/>
       </g>
      </g>
      <g class="com.sun.star.drawing.CustomShape">
       <g id="id26">
        <rect class="BoundingBox" stroke="none" fill="none" x="5308" y="6308" width="1385" height="1385"/>
        <path fill="rgb(114,159,207)" stroke="none" d="M 6000,7667 L 5333,7667 5333,6333 6667,6333 6667,7667 6000,7667 Z "/>
        <path fill="none" stroke="rgb(52,101,164)" stroke-width="50" stroke-linejoin="round" d="M 6000,7667 L 5333,7667 5333,6333 6667,6333 6667,7667 6000,7667 Z "/>
       </g>
      </g>
      <g class="com.sun.star.drawing.CustomShape">
       <g id="id27">
        <rect class="BoundingBox" stroke="none" fill="none" x="6641" y="6308" width="1384" height="1385"/>
        <path fill="rgb(114,159,207)" stroke="none" d="M 7333,7667 L 6666,7667 6666,6333 7999,6333 7999,7667 7333,7667 Z "/>
        <path fill="none" stroke="rgb(52,101,164)" stroke-width="50" stroke-linejoin="round" d="M 7333,7667 L 6666,7667 6666,6333 7999,6333 7999,7667 7333,7667 Z "/>
       </g>
      </g>
      <g class="com.sun.star.drawing.CustomShape">
       <g id="id28">
        <rect class="BoundingBox" stroke="none" fill="none" x="5308" y="4974" width="1385" height="1384"/>
        <path fill="rgb(114,159,207)" stroke="none" d="M 6000,6332 L 5333,6332 5333,4999 6667,4999 6667,6332 6000,6332 Z "/>
        <path fill="none" stroke="rgb(52,101,164)" stroke-width="50" stroke-linejoin="round" d="M 6000,6332 L 5333,6332 5333,4999 6667,4999 6667,6332 6000,6332 Z "/>
       </g>
      </g>
      <g class="com.sun.star.drawing.CustomShape">
       <g id="id29">
        <rect class="BoundingBox" stroke="none" fill="none" x="6641" y="4974" width="1384" height="1384"/>
        <path fill="rgb(114,159,207)" stroke="none" d="M 7333,6332 L 6666,6332 6666,4999 7999,4999 7999,6332 7333,6332 Z "/>
        <path fill="none" stroke="rgb(52,101,164)" stroke-width="50" stroke-linejoin="round" d="M 7333,6332 L 6666,6332 6666,4999 7999,4999 7999,6332 7333,6332 Z "/>
       </g>
      </g>
      <g class="com.sun.star.drawing.PolyPolygonShape">
       <g id="id30">
        <rect class="BoundingBox" stroke="none" fill="none" x="5308" y="4641" width="1718" height="385"/>
        <path fill="rgb(114,159,207)" stroke="none" d="M 5333,5000 L 5667,4667 7000,4667 6667,5000 5333,5000 Z "/>
        <path fill="none" stroke="rgb(52,101,164)" stroke-width="50" stroke-linejoin="round" d="M 5333,5000 L 5667,4667 7000,4667 6667,5000 5333,5000 Z "/>
       </g>
      </g>
      <g class="com.sun.star.drawing.PolyPolygonShape">
       <g id="id31">
        <rect class="BoundingBox" stroke="none" fill="none" x="6641" y="4641" width="1719" height="385"/>
        <path fill="rgb(114,159,207)" stroke="none" d="M 6667,5000 L 7000,4667 8333,4667 8000,5000 6667,5000 Z "/>
        <path fill="none" stroke="rgb(52,101,164)" stroke-width="50" stroke-linejoin="round" d="M 6667,5000 L 7000,4667 8333,4667 8000,5000 6667,5000 Z "/>
       </g>
      </g>
      <g class="com.sun.star.drawing.PolyPolygonShape">
       <g id="id32">
        <rect class="BoundingBox" stroke="none" fill="none" x="5641" y="4308" width="1719" height="385"/>
        <path fill="rgb(114,159,207)" stroke="none" d="M 5667,4667 L 6000,4333 7333,4333 7000,4667 5667,4667 Z "/>
        <path fill="none" stroke="rgb(52,101,164)" stroke-width="50" stroke-linejoin="round" d="M 5667,4667 L 6000,4333 7333,4333 7000,4667 5667,4667 Z "/>
       </g>
      </g>
      <g class="com.sun.star.drawing.PolyPolygonShape">
       <g id="id33">
        <rect class="BoundingBox" stroke="none" fill="none" x="6975" y="4308" width="1718" height="385"/>
        <path fill="rgb(114,159,207)" stroke="none" d="M 7000,4667 L 7333,4333 8667,4333 8333,4667 7000,4667 Z "/>
        <path fill="none" stroke="rgb(52,101,164)" stroke-width="50" stroke-linejoin="round" d="M 7000,4667 L 7333,4333 8667,4333 8333,4667 7000,4667 Z "/>
       </g>
      </g>
      <g class="com.sun.star.drawing.PolyPolygonShape">
       <g id="id34">
        <rect class="BoundingBox" stroke="none" fill="none" x="5975" y="3975" width="1718" height="385"/>
        <path fill="rgb(114,159,207)" stroke="none" d="M 6000,4333 L 6333,4000 7667,4000 7333,4333 6000,4333 Z "/>
        <path fill="none" stroke="rgb(52,101,164)" stroke-width="50" stroke-linejoin="round" d="M 6000,4333 L 6333,4000 7667,4000 7333,4333 6000,4333 Z "/>
       </g>
      </g>
      <g class="com.sun.star.drawing.PolyPolygonShape">
       <g id="id35">
        <rect class="BoundingBox" stroke="none" fill="none" x="7308" y="3975" width="1718" height="385"/>
        <path fill="rgb(114,159,207)" stroke="none" d="M 7333,4333 L 7667,4000 9000,4000 8667,4333 7333,4333 Z "/>
        <path fill="none" stroke="rgb(52,101,164)" stroke-width="50" stroke-linejoin="round" d="M 7333,4333 L 7667,4000 9000,4000 8667,4333 7333,4333 Z "/>
       </g>
      </g>
      <g class="com.sun.star.drawing.PolyPolygonShape">
       <g id="id36">
        <rect class="BoundingBox" stroke="none" fill="none" x="7975" y="4641" width="385" height="1719"/>
        <path fill="rgb(114,159,207)" stroke="none" d="M 8000,6333 L 8000,5000 8333,4667 8333,6000 8000,6333 Z "/>
        <path fill="none" stroke="rgb(52,101,164)" stroke-width="50" stroke-linejoin="round" d="M 8000,6333 L 8000,5000 8333,4667 8333,6000 8000,6333 Z "/>
       </g>
      </g>
      <g class="com.sun.star.drawing.PolyPolygonShape">
       <g id="id37">
        <rect class="BoundingBox" stroke="none" fill="none" x="7974" y="5974" width="386" height="1719"/>
        <path fill="rgb(114,159,207)" stroke="none" d="M 8000,7667 L 8000,6333 8333,6000 8333,7333 8000,7667 Z "/>
        <path fill="none" stroke="rgb(52,101,164)" stroke-width="50" stroke-linejoin="round" d="M 8000,7667 L 8000,6333 8333,6000 8333,7333 8000,7667 Z "/>
       </g>
      </g>
      <g class="com.sun.star.drawing.PolyPolygonShape">
       <g id="id38">
        <rect class="BoundingBox" stroke="none" fill="none" x="7974" y="7308" width="386" height="1718"/>
        <path fill="rgb(114,159,207)" stroke="none" d="M 8000,9000 L 8000,7667 8333,7333 8333,8667 8000,9000 Z "/>
        <path fill="none" stroke="rgb(52,101,164)" stroke-width="50" stroke-linejoin="round" d="M 8000,9000 L 8000,7667 8333,7333 8333,8667 8000,9000 Z "/>
       </g>
      </g>
      <g class="com.sun.star.drawing.PolyPolygonShape">
       <g id="id39">
        <rect class="BoundingBox" stroke="none" fill="none" x="8308" y="4308" width="385" height="1718"/>
        <path fill="rgb(114,159,207)" stroke="none" d="M 8333,6000 L 8333,4667 8667,4333 8667,5667 8333,6000 Z "/>
        <path fill="none" stroke="rgb(52,101,164)" stroke-width="50" stroke-linejoin="round" d="M 8333,6000 L 8333,4667 8667,4333 8667,5667 8333,6000 Z "/>
       </g>
      </g>
      <g class="com.sun.star.drawing.PolyPolygonShape">
       <g id="id40">
        <rect class="BoundingBox" stroke="none" fill="none" x="8308" y="5641" width="385" height="1719"/>
        <path fill="rgb(114,159,207)" stroke="none" d="M 8333,7333 L 8333,6000 8667,5667 8667,7000 8333,7333 Z "/>
        <path fill="none" stroke="rgb(52,101,164)" stroke-width="50" stroke-linejoin="round" d="M 8333,7333 L 8333,6000 8667,5667 8667,7000 8333,7333 Z "/>
       </g>
      </g>
      <g class="com.sun.star.drawing.PolyPolygonShape">
       <g id="id41">
        <rect class="BoundingBox" stroke="none" fill="none" x="8308" y="6975" width="385" height="1718"/>
        <path fill="rgb(114,159,207)" stroke="none" d="M 8333,8667 L 8333,7333 8667,7000 8667,8333 8333,8667 Z "/>
        <path fill="none" stroke="rgb(52,101,164)" stroke-width="50" stroke-linejoin="round" d="M 8333,8667 L 8333,7333 8667,7000 8667,8333 8333,8667 Z "/>
       </g>
      </g>
      <g class="com.sun.star.drawing.PolyPolygonShape">
       <g id="id42">
        <rect class="BoundingBox" stroke="none" fill="none" x="8641" y="3975" width="385" height="1718"/>
        <path fill="rgb(114,159,207)" stroke="none" d="M 8667,5667 L 8667,4333 9000,4000 9000,5333 8667,5667 Z "/>
        <path fill="none" stroke="rgb(52,101,164)" stroke-width="50" stroke-linejoin="round" d="M 8667,5667 L 8667,4333 9000,4000 9000,5333 8667,5667 Z "/>
       </g>
      </g>
      <g class="com.sun.star.drawing.PolyPolygonShape">
       <g id="id43">
        <rect class="BoundingBox" stroke="none" fill="none" x="8641" y="5308" width="385" height="1718"/>
        <path fill="rgb(114,159,207)" stroke="none" d="M 8667,7000 L 8667,5667 9000,5333 9000,6667 8667,7000 Z "/>
        <path fill="none" stroke="rgb(52,101,164)" stroke-width="50" stroke-linejoin="round" d="M 8667,7000 L 8667,5667 9000,5333 9000,6667 8667,7000 Z "/>
       </g>
      </g>
      <g class="com.sun.star.drawing.PolyPolygonShape">
       <g id="id44">
        <rect class="BoundingBox" stroke="none" fill="none" x="8641" y="6641" width="385" height="1719"/>
        <path fill="rgb(114,159,207)" stroke="none" d="M 8667,8333 L 8667,7000 9000,6667 9000,8000 8667,8333 Z "/>
        <path fill="none" stroke="rgb(52,101,164)" stroke-width="50" stroke-linejoin="round" d="M 8667,8333 L 8667,7000 9000,6667 9000,8000 8667,8333 Z "/>
       </g>
      </g>
      <g class="com.sun.star.drawing.ConnectorShape">
       <g id="id45">
        <rect class="BoundingBox" stroke="none" fill="none" x="2975" y="4642" width="2359" height="2499"/>
        <g style="opacity: 0.250980392156863">
         <path fill="none" stroke="rgb(52,101,164)" stroke-width="50" stroke-linejoin="round" stroke-linecap="round" d="M 3000,4667 C 3000,6223 3683,6900 5052,6991 "/>
         <path fill="rgb(52,101,164)" stroke="none" d="M 5038,6840 L 5333,7000 5028,7140 5038,6840 Z "/>
        </g>
       </g>
      </g>
      <g class="com.sun.star.drawing.ConnectorShape">
       <g id="id46">
        <rect class="BoundingBox" stroke="none" fill="none" x="6000" y="1694" width="2192" height="2332"/>
        <g style="opacity: 0.250980392156863">
         <path fill="none" stroke="rgb(52,101,164)" stroke-width="50" stroke-linejoin="round" stroke-linecap="round" d="M 8166,4000 C 8166,2555 7538,1933 6281,1843 "/>
         <path fill="rgb(52,101,164)" stroke="none" d="M 6294,1994 L 6000,1833 6305,1694 6294,1994 Z "/>
        </g>
       </g>
      </g>
      <g class="com.sun.star.drawing.ConnectorShape">
       <g id="id47">
        <rect class="BoundingBox" stroke="none" fill="none" x="6000" y="3049" width="859" height="977"/>
        <g style="opacity: 0.250980392156863">
         <path fill="none" stroke="rgb(52,101,164)" stroke-width="50" stroke-linejoin="round" stroke-linecap="round" d="M 6833,4000 C 6833,3444 6648,3277 6278,3194 "/>
         <path fill="rgb(52,101,164)" stroke="none" d="M 6282,3348 L 6000,3166 6315,3050 6282,3348 Z "/>
        </g>
       </g>
      </g>
      <g class="com.sun.star.drawing.ConnectorShape">
       <g id="id48">
        <rect class="BoundingBox" stroke="none" fill="none" x="1641" y="4642" width="3693" height="3836"/>
        <g style="opacity: 0.250980392156863">
         <path fill="none" stroke="rgb(52,101,164)" stroke-width="50" stroke-linejoin="round" stroke-linecap="round" d="M 1666,4667 C 1666,7111 2794,8235 5051,8327 "/>
         <path fill="rgb(52,101,164)" stroke="none" d="M 5036,8177 L 5333,8333 5030,8477 5036,8177 Z "/>
        </g>
       </g>
      </g>
      <g class="com.sun.star.drawing.ConnectorShape">
       <g id="id49">
        <rect class="BoundingBox" stroke="none" fill="none" x="4308" y="4642" width="1026" height="1149"/>
        <g style="opacity: 0.250980392156863">
         <path fill="none" stroke="rgb(52,101,164)" stroke-width="50" stroke-linejoin="round" stroke-linecap="round" d="M 4333,4667 C 4333,5333 4573,5558 5054,5643 "/>
         <path fill="rgb(52,101,164)" stroke="none" d="M 5047,5490 L 5333,5666 5021,5789 5047,5490 Z "/>
        </g>
       </g>
      </g>
     </g>
    </g>
   </g>
  </g>
 </g>
</svg>