<?xml version="1.0" encoding="UTF-8"?>
<!DOCTYPE svg PUBLIC "-//W3C//DTD SVG 1.1//EN" "http://www.w3.org/Graphics/SVG/1.1/DTD/svg11.dtd">
<svg version="1.2" width="100mm" height="100mm" viewBox="0 0 10000 10000" preserveAspectRatio="xMidYMid" fill-rule="evenodd" stroke-width="28.222" stroke-linejoin="round" xmlns="http://www.w3.org/2000/svg" xmlns:ooo="http://xml.openoffice.org/svg/export" xmlns:xlink="http://www.w3.org/1999/xlink" xmlns:presentation="http://sun.com/xmlns/staroffice/presentation" xmlns:smil="http://www.w3.org/2001/SMIL20/" xmlns:anim="urn:oasis:names:tc:opendocument:xmlns:animation:1.0" xmlns:svg="urn:oasis:names:tc:opendocument:xmlns:svg-compatible:1.0" xml:space="preserve">
 <defs class="ClipPathGroup">
  <clipPath id="presentation_clip_path" clipPathUnits="userSpaceOnUse">
   <rect x="0" y="0" width="10000" height="10000"/>
  </clipPath>
  <clipPath id="presentation_clip_path_shrink" clipPathUnits="userSpaceOnUse">
   <rect x="10" y="10" width="9980" height="9980"/>
  </clipPath>
 </defs>
 <defs class="TextShapeIndex">
  <g ooo:slide="id1" ooo:id-list="id3 id4 id5 id6 id7 id8 id9 id10 id11 id12 id13 id14 id15 id16 id17 id18 id19 id20 id21 id22 id23 id24 id25 id26 id27 id28 id29 id30 id31 id32 id33 id34 id35 id36 id37 id38 id39 id40 id41 id42 id43 id44"/>
 </defs>
 <defs class="EmbeddedBulletChars">
  <g id="bullet-char-template-57356" transform="scale(0.00048828125,-0.00048828125)">
   <path d="M 580,1141 L 1163,571 580,0 -4,571 580,1141 Z"/>
  </g>
  <g id="bullet-char-template-57354" transform="scale(0.00048828125,-0.00048828125)">
   <path d="M 8,1128 L 1137,1128 1137,0 8,0 8,1128 Z"/>
  </g>
  <g id="bullet-char-template-10146" transform="scale(0.00048828125,-0.00048828125)">
   <path d="M 174,0 L 602,739 174,1481 1456,739 174,0 Z M 1358,739 L 309,1346 659,739 1358,739 Z"/>
  </g>
  <g id="bullet-char-template-10132" transform="scale(0.00048828125,-0.00048828125)">
   <path d="M 2015,739 L 1276,0 717,0 1260,543 174,543 174,936 1260,936 717,1481 1274,1481 2015,739 Z"/>
  </g>
  <g id="bullet-char-template-10007" transform="scale(0.00048828125,-0.00048828125)">
   <path d="M 0,-2 C -7,14 -16,27 -25,37 L 356,567 C 262,823 215,952 215,954 215,979 228,992 255,992 264,992 276,990 289,987 310,991 331,999 354,1012 L 381,999 492,748 772,1049 836,1024 860,1049 C 881,1039 901,1025 922,1006 886,937 835,863 770,784 769,783 710,716 594,584 L 774,223 C 774,196 753,168 711,139 L 727,119 C 717,90 699,76 672,76 641,76 570,178 457,381 L 164,-76 C 142,-110 111,-127 72,-127 30,-127 9,-110 8,-76 1,-67 -2,-52 -2,-32 -2,-23 -1,-13 0,-2 Z"/>
  </g>
  <g id="bullet-char-template-10004" transform="scale(0.00048828125,-0.00048828125)">
   <path d="M 285,-33 C 182,-33 111,30 74,156 52,228 41,333 41,471 41,549 55,616 82,672 116,743 169,778 240,778 293,778 328,747 346,684 L 369,508 C 377,444 397,411 428,410 L 1163,1116 C 1174,1127 1196,1133 1229,1133 1271,1133 1292,1118 1292,1087 L 1292,965 C 1292,929 1282,901 1262,881 L 442,47 C 390,-6 338,-33 285,-33 Z"/>
  </g>
  <g id="bullet-char-template-9679" transform="scale(0.00048828125,-0.00048828125)">
   <path d="M 813,0 C 632,0 489,54 383,161 276,268 223,411 223,592 223,773 276,916 383,1023 489,1130 632,1184 813,1184 992,1184 1136,1130 1245,1023 1353,916 1407,772 1407,592 1407,412 1353,268 1245,161 1136,54 992,0 813,0 Z"/>
  </g>
  <g id="bullet-char-template-8226" transform="scale(0.00048828125,-0.00048828125)">
   <path d="M 346,457 C 273,457 209,483 155,535 101,586 74,649 74,723 74,796 101,859 155,911 209,963 273,989 346,989 419,989 480,963 531,910 582,859 608,796 608,723 608,648 583,586 532,535 482,483 420,457 346,457 Z"/>
  </g>
  <g id="bullet-char-template-8211" transform="scale(0.00048828125,-0.00048828125)">
   <path d="M -4,459 L 1135,459 1135,606 -4,606 -4,459 Z"/>
  </g>
  <g id="bullet-char-template-61548" transform="scale(0.00048828125,-0.00048828125)">
   <path d="M 173,740 C 173,903 231,1043 346,1159 462,1274 601,1332 765,1332 928,1332 1067,1274 1183,1159 1299,1043 1357,903 1357,740 1357,577 1299,437 1183,322 1067,206 928,148 765,148 601,148 462,206 346,322 231,437 173,577 173,740 Z"/>
  </g>
 </defs>
 <g>
  <g id="id2" class="Master_Slide">
   <g id="bg-id2" class="Background"/>
   <g id="bo-id2" class="BackgroundObjects"/>
  </g>
 </g>
 <g class="SlideGroup">
  <g>
   <g id="container-id1">
    <g id="id1" class="Slide" clip-path="url(#presentation_clip_path)">
     <g class="Page">
      <g class="com.sun.star.drawing.CustomShape">
       <g id="id3">
        <rect class="BoundingBox" stroke="none" fill="none" x="2725" y="5225" width="2051" height="2051"/>
        <g style="opacity: 0.250980392156863">
         <path fill="none" stroke="rgb(52,101,164)" stroke-width="50" stroke-linejoin="round" stroke-linecap="round" d="M 3750,7250 L 2750,7250 2750,5250 4750,5250 4750,7250 3750,7250 Z "/>
        </g>
       </g>
      </g>
      <g class="com.sun.star.drawing.CustomShape">
       <g id="id4">
        <rect class="BoundingBox" stroke="none" fill="none" x="4725" y="5225" width="2051" height="2051"/>
        <g style="opacity: 0.250980392156863">
         <path fill="none" stroke="rgb(52,101,164)" stroke-width="50" stroke-linejoin="round" stroke-linecap="round" d="M 5750,7250 L 4750,7250 4750,5250 6750,5250 6750,7250 5750,7250 Z "/>
        </g>
       </g>
      </g>
      <g class="com.sun.star.drawing.CustomShape">
       <g id="id5">
        <rect class="BoundingBox" stroke="none" fill="none" x="6725" y="5225" width="2051" height="2051"/>
        <g style="opacity: 0.250980392156863">
         <path fill="none" stroke="rgb(52,101,164)" stroke-width="50" stroke-linejoin="round" stroke-linecap="round" d="M 7750,7250 L 6750,7250 6750,5250 8750,5250 8750,7250 7750,7250 Z "/>
        </g>
       </g>
      </g>
      <g class="com.sun.star.drawing.PolyPolygonShape">
       <g id="id6">
        <rect class="BoundingBox" stroke="none" fill="none" x="1225" y="6225" width="551" height="2551"/>
        <g style="opacity: 0.250980392156863">
         <path fill="none" stroke="rgb(52,101,164)" stroke-width="50" stroke-linejoin="round" stroke-linecap="round" d="M 1250,8750 L 1250,6750 1750,6250 1750,8250 1250,8750 Z "/>
        </g>
       </g>
      </g>
      <g class="com.sun.star.drawing.PolyPolygonShape">
       <g id="id7">
        <rect class="BoundingBox" stroke="none" fill="none" x="1725" y="5725" width="551" height="2551"/>
        <g style="opacity: 0.250980392156863">
         <path fill="none" stroke="rgb(52,101,164)" stroke-width="50" stroke-linejoin="round" stroke-linecap="round" d="M 1750,8250 L 1750,6250 2250,5750 2250,7750 1750,8250 Z "/>
        </g>
       </g>
      </g>
      <g class="com.sun.star.drawing.PolyPolygonShape">
       <g id="id8">
        <rect class="BoundingBox" stroke="none" fill="none" x="2225" y="5224" width="551" height="2552"/>
        <g style="opacity: 0.250980392156863">
         <path fill="none" stroke="rgb(52,101,164)" stroke-width="50" stroke-linejoin="round" stroke-linecap="round" d="M 2250,7750 L 2250,5750 2750,5250 2750,7250 2250,7750 Z "/>
        </g>
       </g>
      </g>
      <g class="com.sun.star.drawing.PolyPolygonShape">
       <g id="id9">
        <rect class="BoundingBox" stroke="none" fill="none" x="1224" y="8225" width="2552" height="551"/>
        <g style="opacity: 0.250980392156863">
         <path fill="none" stroke="rgb(52,101,164)" stroke-width="50" stroke-linejoin="round" stroke-linecap="round" d="M 1250,8750 L 1750,8250 3750,8250 3250,8750 1250,8750 Z "/>
        </g>
       </g>
      </g>
      <g class="com.sun.star.drawing.PolyPolygonShape">
       <g id="id10">
        <rect class="BoundingBox" stroke="none" fill="none" x="3224" y="8225" width="2552" height="551"/>
        <g style="opacity: 0.250980392156863">
         <path fill="none" stroke="rgb(52,101,164)" stroke-width="50" stroke-linejoin="round" stroke-linecap="round" d="M 3250,8750 L 3750,8250 5750,8250 5250,8750 3250,8750 Z "/>
        </g>
       </g>
      </g>
      <g class="com.sun.star.drawing.PolyPolygonShape">
       <g id="id11">
        <rect class="BoundingBox" stroke="none" fill="none" x="5224" y="8225" width="2552" height="551"/>
        <g style="opacity: 0.250980392156863">
         <path fill="none" stroke="rgb(52,101,164)" stroke-width="50" stroke-linejoin="round" stroke-linecap="round" d="M 5250,8750 L 5750,8250 7750,8250 7250,8750 5250,8750 Z "/>
        </g>
       </g>
      </g>
      <g class="com.sun.star.drawing.PolyPolygonShape">
       <g id="id12">
        <rect class="BoundingBox" stroke="none" fill="none" x="1725" y="7725" width="2551" height="551"/>
        <g style="opacity: 0.250980392156863">
         <path fill="none" stroke="rgb(52,101,164)" stroke-width="50" stroke-linejoin="round" stroke-linecap="round" d="M 1750,8250 L 2250,7750 4250,7750 3750,8250 1750,8250 Z "/>
        </g>
       </g>
      </g>
      <g class="com.sun.star.drawing.PolyPolygonShape">
       <g id="id13">
        <rect class="BoundingBox" stroke="none" fill="none" x="3724" y="7725" width="2552" height="551"/>
        <g style="opacity: 0.250980392156863">
         <path fill="none" stroke="rgb(52,101,164)" stroke-width="50" stroke-linejoin="round" stroke-linecap="round" d="M 3750,8250 L 4250,7750 6250,7750 5750,8250 3750,8250 Z "/>
        </g>
       </g>
      </g>
      <g class="com.sun.star.drawing.PolyPolygonShape">
       <g id="id14">
        <rect class="BoundingBox" stroke="none" fill="none" x="5725" y="7725" width="2551" height="551"/>
        <g style="opacity: 0.250980392156863">
         <path fill="none" stroke="rgb(52,101,164)" stroke-width="50" stroke-linejoin="round" stroke-linecap="round" d="M 5750,8250 L 6250,7750 8250,7750 7750,8250 5750,8250 Z "/>
        </g>
       </g>
      </g>
      <g class="com.sun.star.drawing.PolyPolygonShape">
       <g id="id15">
        <rect class="BoundingBox" stroke="none" fill="none" x="2225" y="7225" width="2551" height="551"/>
        <g style="opacity: 0.250980392156863">
         <path fill="none" stroke="rgb(52,101,164)" stroke-width="50" stroke-linejoin="round" stroke-linecap="round" d="M 2250,7750 L 2750,7250 4750,7250 4250,7750 2250,7750 Z "/>
        </g>
       </g>
      </g>
      <g class="com.sun.star.drawing.PolyPolygonShape">
       <g id="id16">
        <rect class="BoundingBox" stroke="none" fill="none" x="4225" y="7225" width="2551" height="551"/>
        <g style="opacity: 0.250980392156863">
         <path fill="none" stroke="rgb(52,101,164)" stroke-width="50" stroke-linejoin="round" stroke-linecap="round" d="M 4250,7750 L 4750,7250 6750,7250 6250,7750 4250,7750 Z "/>
        </g>
       </g>
      </g>
      <g class="com.sun.star.drawing.PolyPolygonShape">
       <g id="id17">
        <rect class="BoundingBox" stroke="none" fill="none" x="6225" y="7225" width="2551" height="551"/>
        <g style="opacity: 0.250980392156863">
         <path fill="none" stroke="rgb(52,101,164)" stroke-width="50" stroke-linejoin="round" stroke-linecap="round" d="M 6250,7750 L 6750,7250 8750,7250 8250,7750 6250,7750 Z "/>
        </g>
       </g>
      </g>
      <g class="com.sun.star.drawing.CustomShape">
       <g id="id18">
        <rect class="BoundingBox" stroke="none" fill="none" x="1225" y="6725" width="2051" height="2051"/>
        <g style="opacity: 0.250980392156863">
         <path fill="none" stroke="rgb(52,101,164)" stroke-width="50" stroke-linejoin="round" stroke-linecap="round" d="M 2250,8750 L 1250,8750 1250,6750 3250,6750 3250,8750 2250,8750 Z "/>
        </g>
       </g>
      </g>
      <g class="com.sun.star.drawing.CustomShape">
       <g id="id19">
        <rect class="BoundingBox" stroke="none" fill="none" x="3225" y="6725" width="2051" height="2051"/>
        <g style="opacity: 0.250980392156863">
         <path fill="none" stroke="rgb(52,101,164)" stroke-width="50" stroke-linejoin="round" stroke-linecap="round" d="M 4250,8750 L 3250,8750 3250,6750 5250,6750 5250,8750 4250,8750 Z "/>
        </g>
       </g>
      </g>
      <g class="com.sun.star.drawing.CustomShape">
       <g id="id20">
        <rect class="BoundingBox" stroke="none" fill="none" x="5225" y="6725" width="2051" height="2051"/>
        <g style="opacity: 0.250980392156863">
         <path fill="none" stroke="rgb(52,101,164)" stroke-width="50" stroke-linejoin="round" stroke-linecap="round" d="M 6250,8750 L 5250,8750 5250,6750 7250,6750 7250,8750 6250,8750 Z "/>
        </g>
       </g>
      </g>
      <g class="com.sun.star.drawing.CustomShape">
       <g id="id21">
        <rect class="BoundingBox" stroke="none" fill="none" x="1225" y="4725" width="2051" height="2051"/>
        <path fill="rgb(114,159,207)" stroke="none" d="M 2250,6750 L 1250,6750 1250,4750 3250,4750 3250,6750 2250,6750 Z "/>
        <path fill="none" stroke="rgb(52,101,164)" stroke-width="50" stroke-linejoin="round" d="M 2250,6750 L 1250,6750 1250,4750 3250,4750 3250,6750 2250,6750 Z "/>
       </g>
      </g>
      <g class="com.sun.star.drawing.CustomShape">
       <g id="id22">
        <rect class="BoundingBox" stroke="none" fill="none" x="3225" y="4725" width="2051" height="2051"/>
        <path fill="rgb(114,159,207)" stroke="none" d="M 4250,6750 L 3250,6750 3250,4750 5250,4750 5250,6750 4250,6750 Z "/>
        <path fill="none" stroke="rgb(52,101,164)" stroke-width="50" stroke-linejoin="round" d="M 4250,6750 L 3250,6750 3250,4750 5250,4750 5250,6750 4250,6750 Z "/>
       </g>
      </g>
      <g class="com.sun.star.drawing.CustomShape">
       <g id="id23">
        <rect class="BoundingBox" stroke="none" fill="none" x="5225" y="4725" width="2051" height="2051"/>
        <path fill="rgb(114,159,207)" stroke="none" d="M 6250,6750 L 5250,6750 5250,4750 7250,4750 7250,6750 6250,6750 Z "/>
        <path fill="none" stroke="rgb(52,101,164)" stroke-width="50" stroke-linejoin="round" d="M 6250,6750 L 5250,6750 5250,4750 7250,4750 7250,6750 6250,6750 Z "/>
       </g>
      </g>
      <g class="com.sun.star.drawing.CustomShape">
       <g id="id24">
        <rect class="BoundingBox" stroke="none" fill="none" x="1225" y="2725" width="2051" height="2051"/>
        <path fill="rgb(114,159,207)" stroke="none" d="M 2250,4750 L 1250,4750 1250,2750 3250,2750 3250,4750 2250,4750 Z "/>
        <path fill="none" stroke="rgb(52,101,164)" stroke-width="50" stroke-linejoin="round" d="M 2250,4750 L 1250,4750 1250,2750 3250,2750 3250,4750 2250,4750 Z "/>
       </g>
      </g>
      <g class="com.sun.star.drawing.CustomShape">
       <g id="id25">
        <rect class="BoundingBox" stroke="none" fill="none" x="3225" y="2725" width="2051" height="2051"/>
        <path fill="rgb(114,159,207)" stroke="none" d="M 4250,4750 L 3250,4750 3250,2750 5250,2750 5250,4750 4250,4750 Z "/>
        <path fill="none" stroke="rgb(52,101,164)" stroke-width="50" stroke-linejoin="round" d="M 4250,4750 L 3250,4750 3250,2750 5250,2750 5250,4750 4250,4750 Z "/>
       </g>
      </g>
      <g class="com.sun.star.drawing.CustomShape">
       <g id="id26">
        <rect class="BoundingBox" stroke="none" fill="none" x="5225" y="2725" width="2051" height="2051"/>
        <path fill="rgb(114,159,207)" stroke="none" d="M 6250,4750 L 5250,4750 5250,2750 7250,2750 7250,4750 6250,4750 Z "/>
        <path fill="none" stroke="rgb(52,101,164)" stroke-width="50" stroke-linejoin="round" d="M 6250,4750 L 5250,4750 5250,2750 7250,2750 7250,4750 6250,4750 Z "/>
       </g>
      </g>
      <g class="com.sun.star.drawing.PolyPolygonShape">
       <g id="id27">
        <rect class="BoundingBox" stroke="none" fill="none" x="1224" y="2225" width="2552" height="551"/>
        <path fill="rgb(114,159,207)" stroke="none" d="M 1250,2750 L 1750,2250 3750,2250 3250,2750 1250,2750 Z "/>
        <path fill="none" stroke="rgb(52,101,164)" stroke-width="50" stroke-linejoin="round" d="M 1250,2750 L 1750,2250 3750,2250 3250,2750 1250,2750 Z "/>
       </g>
      </g>
      <g class="com.sun.star.drawing.PolyPolygonShape">
       <g id="id28">
        <rect class="BoundingBox" stroke="none" fill="none" x="3224" y="2225" width="2552" height="551"/>
        <path fill="rgb(114,159,207)" stroke="none" d="M 3250,2750 L 3750,2250 5750,2250 5250,2750 3250,2750 Z "/>
        <path fill="none" stroke="rgb(52,101,164)" stroke-width="50" stroke-linejoin="round" d="M 3250,2750 L 3750,2250 5750,2250 5250,2750 3250,2750 Z "/>
       </g>
      </g>
      <g class="com.sun.star.drawing.PolyPolygonShape">
       <g id="id29">
        <rect class="BoundingBox" stroke="none" fill="none" x="5224" y="2225" width="2552" height="551"/>
        <path fill="rgb(114,159,207)" stroke="none" d="M 5250,2750 L 5750,2250 7750,2250 7250,2750 5250,2750 Z "/>
        <path fill="none" stroke="rgb(52,101,164)" stroke-width="50" stroke-linejoin="round" d="M 5250,2750 L 5750,2250 7750,2250 7250,2750 5250,2750 Z "/>
       </g>
      </g>
      <g class="com.sun.star.drawing.PolyPolygonShape">
       <g id="id30">
        <rect class="BoundingBox" stroke="none" fill="none" x="1725" y="1725" width="2551" height="551"/>
        <path fill="rgb(114,159,207)" stroke="none" d="M 1750,2250 L 2250,1750 4250,1750 3750,2250 1750,2250 Z "/>
        <path fill="none" stroke="rgb(52,101,164)" stroke-width="50" stroke-linejoin="round" d="M 1750,2250 L 2250,1750 4250,1750 3750,2250 1750,2250 Z "/>
       </g>
      </g>
      <g class="com.sun.star.drawing.PolyPolygonShape">
       <g id="id31">
        <rect class="BoundingBox" stroke="none" fill="none" x="3724" y="1725" width="2552" height="551"/>
        <path fill="rgb(114,159,207)" stroke="none" d="M 3750,2250 L 4250,1750 6250,1750 5750,2250 3750,2250 Z "/>
        <path fill="none" stroke="rgb(52,101,164)" stroke-width="50" stroke-linejoin="round" d="M 3750,2250 L 4250,1750 6250,1750 5750,2250 3750,2250 Z "/>
       </g>
      </g>
      <g class="com.sun.star.drawing.PolyPolygonShape">
       <g id="id32">
        <rect class="BoundingBox" stroke="none" fill="none" x="5725" y="1725" width="2551" height="551"/>
        <path fill="rgb(114,159,207)" stroke="none" d="M 5750,2250 L 6250,1750 8250,1750 7750,2250 5750,2250 Z "/>
        <path fill="none" stroke="rgb(52,101,164)" stroke-width="50" stroke-linejoin="round" d="M 5750,2250 L 6250,1750 8250,1750 7750,2250 5750,2250 Z "/>
       </g>
      </g>
      <g class="com.sun.star.drawing.PolyPolygonShape">
       <g id="id33">
        <rect class="BoundingBox" stroke="none" fill="none" x="2225" y="1225" width="2551" height="551"/>
        <path fill="rgb(114,159,207)" stroke="none" d="M 2250,1750 L 2750,1250 4750,1250 4250,1750 2250,1750 Z "/>
        <path fill="none" stroke="rgb(52,101,164)" stroke-width="50" stroke-linejoin="round" d="M 2250,1750 L 2750,1250 4750,1250 4250,1750 2250,1750 Z "/>
       </g>
      </g>
      <g class="com.sun.star.drawing.PolyPolygonShape">
       <g id="id34">
        <rect class="BoundingBox" stroke="none" fill="none" x="4225" y="1225" width="2551" height="551"/>
        <path fill="rgb(114,159,207)" stroke="none" d="M 4250,1750 L 4750,1250 6750,1250 6250,1750 4250,1750 Z "/>
        <path fill="none" stroke="rgb(52,101,164)" stroke-width="50" stroke-linejoin="round" d="M 4250,1750 L 4750,1250 6750,1250 6250,1750 4250,1750 Z "/>
       </g>
      </g>
      <g class="com.sun.star.drawing.PolyPolygonShape">
       <g id="id35">
        <rect class="BoundingBox" stroke="none" fill="none" x="6225" y="1225" width="2551" height="551"/>
        <path fill="rgb(114,159,207)" stroke="none" d="M 6250,1750 L 6750,1250 8750,1250 8250,1750 6250,1750 Z "/>
        <path fill="none" stroke="rgb(52,101,164)" stroke-width="50" stroke-linejoin="round" d="M 6250,1750 L 6750,1250 8750,1250 8250,1750 6250,1750 Z "/>
       </g>
      </g>
      <g class="com.sun.star.drawing.PolyPolygonShape">
       <g id="id36">
        <rect class="BoundingBox" stroke="none" fill="none" x="7225" y="2225" width="551" height="2551"/>
        <path fill="rgb(114,159,207)" stroke="none" d="M 7250,4750 L 7250,2750 7750,2250 7750,4250 7250,4750 Z "/>
        <path fill="none" stroke="rgb(52,101,164)" stroke-width="50" stroke-linejoin="round" d="M 7250,4750 L 7250,2750 7750,2250 7750,4250 7250,4750 Z "/>
       </g>
      </g>
      <g class="com.sun.star.drawing.PolyPolygonShape">
       <g id="id37">
        <rect class="BoundingBox" stroke="none" fill="none" x="7225" y="4225" width="551" height="2551"/>
        <path fill="rgb(114,159,207)" stroke="none" d="M 7250,6750 L 7250,4750 7750,4250 7750,6250 7250,6750 Z "/>
        <path fill="none" stroke="rgb(52,101,164)" stroke-width="50" stroke-linejoin="round" d="M 7250,6750 L 7250,4750 7750,4250 7750,6250 7250,6750 Z "/>
       </g>
      </g>
      <g class="com.sun.star.drawing.PolyPolygonShape">
       <g id="id38">
        <rect class="BoundingBox" stroke="none" fill="none" x="7225" y="6225" width="551" height="2551"/>
        <g style="opacity: 0.250980392156863">
         <path fill="none" stroke="rgb(52,101,164)" stroke-width="50" stroke-linejoin="round" stroke-linecap="round" d="M 7250,8750 L 7250,6750 7750,6250 7750,8250 7250,8750 Z "/>
        </g>
       </g>
      </g>
      <g class="com.sun.star.drawing.PolyPolygonShape">
       <g id="id39">
        <rect class="BoundingBox" stroke="none" fill="none" x="7725" y="1725" width="551" height="2551"/>
        <path fill="rgb(114,159,207)" stroke="none" d="M 7750,4250 L 7750,2250 8250,1750 8250,3750 7750,4250 Z "/>
        <path fill="none" stroke="rgb(52,101,164)" stroke-width="50" stroke-linejoin="round" d="M 7750,4250 L 7750,2250 8250,1750 8250,3750 7750,4250 Z "/>
       </g>
      </g>
      <g class="com.sun.star.drawing.PolyPolygonShape">
       <g id="id40">
        <rect class="BoundingBox" stroke="none" fill="none" x="7725" y="3724" width="551" height="2552"/>
        <path fill="rgb(114,159,207)" stroke="none" d="M 7750,6250 L 7750,4250 8250,3750 8250,5750 7750,6250 Z "/>
        <path fill="none" stroke="rgb(52,101,164)" stroke-width="50" stroke-linejoin="round" d="M 7750,6250 L 7750,4250 8250,3750 8250,5750 7750,6250 Z "/>
       </g>
      </g>
      <g class="com.sun.star.drawing.PolyPolygonShape">
       <g id="id41">
        <rect class="BoundingBox" stroke="none" fill="none" x="7725" y="5725" width="551" height="2551"/>
        <g style="opacity: 0.250980392156863">
         <path fill="none" stroke="rgb(52,101,164)" stroke-width="50" stroke-linejoin="round" stroke-linecap="round" d="M 7750,8250 L 7750,6250 8250,5750 8250,7750 7750,8250 Z "/>
        </g>
       </g>
      </g>
      <g class="com.sun.star.drawing.PolyPolygonShape">
       <g id="id42">
        <rect class="BoundingBox" stroke="none" fill="none" x="8225" y="1224" width="551" height="2552"/>
        <path fill="rgb(114,159,207)" stroke="none" d="M 8250,3750 L 8250,1750 8750,1250 8750,3250 8250,3750 Z "/>
        <path fill="none" stroke="rgb(52,101,164)" stroke-width="50" stroke-linejoin="round" d="M 8250,3750 L 8250,1750 8750,1250 8750,3250 8250,3750 Z "/>
       </g>
      </g>
      <g class="com.sun.star.drawing.PolyPolygonShape">
       <g id="id43">
        <rect class="BoundingBox" stroke="none" fill="none" x="8225" y="3224" width="551" height="2552"/>
        <path fill="rgb(114,159,207)" stroke="none" d="M 8250,5750 L 8250,3750 8750,3250 8750,5250 8250,5750 Z "/>
        <path fill="none" stroke="rgb(52,101,164)" stroke-width="50" stroke-linejoin="round" d="M 8250,5750 L 8250,3750 8750,3250 8750,5250 8250,5750 Z "/>
       </g>
      </g>
      <g class="com.sun.star.drawing.PolyPolygonShape">
       <g id="id44">
        <rect class="BoundingBox" stroke="none" fill="none" x="8225" y="5224" width="551" height="2552"/>
        <g style="opacity: 0.250980392156863">
         <path fill="none" stroke="rgb(52,101,164)" stroke-width="50" stroke-linejoin="round" stroke-linecap="round" d="M 8250,7750 L 8250,5750 8750,5250 8750,7250 8250,7750 Z "/>
        </g>
       </g>
      </g>
     </g>
    </g>
   </g>
  </g>
 </g>
</svg>